<svg width="100" height="100" viewBox="0 0 100 100" fill="none" xmlns="http://www.w3.org/2000/svg">
<g clip-path="url(#clip0_1_2)">
<g clip-path="url(#clip1_1_2)">
<path d="M50 97.3684C70.7566 97.3684 82.2954 97.3684 89.8319 89.8319C97.3684 82.2954 97.3684 70.7566 97.3684 50C97.3684 29.2434 97.3684 17.7046 89.8319 10.1681C82.2954 2.63158 70.7566 2.63158 50 2.63158C29.2434 2.63158 17.7046 2.63158 10.1681 10.1681C2.63158 17.7046 2.63158 29.2434 2.63158 50C2.63158 70.7566 2.63158 82.2954 10.1681 89.8319C17.7046 97.3684 29.2434 97.3684 50 97.3684Z" fill="black" stroke="black" stroke-width="4.04"/>
</g>
<path d="M74.6 32L23 47L20.3 39.8C19.4 36.5 21.2 33.2 24.2 32.3L64.7 20.3C68 19.4 71.3 21.2 72.2 24.2L74.6 32Z" stroke="white" stroke-width="6" stroke-linecap="round" stroke-linejoin="round"/>
<path d="M33 30L41 41" stroke="white" stroke-width="6" stroke-linecap="round" stroke-linejoin="round"/>
<path d="M51 25L60 36" stroke="white" stroke-width="6" stroke-linecap="round" stroke-linejoin="round"/>
<path d="M23 47H77V71C77 72.5913 76.3679 74.1174 75.2426 75.2426C74.1174 76.3679 72.5913 77 71 77H29C27.4087 77 25.8826 76.3679 24.7574 75.2426C23.6321 74.1174 23 72.5913 23 71V47Z" stroke="white" stroke-width="6" stroke-linecap="round" stroke-linejoin="round"/>
</g>
<defs>
<clipPath id="clip0_1_2">
<rect width="100" height="100" fill="white"/>
</clipPath>
<clipPath id="clip1_1_2">
<rect width="100" height="100" fill="white"/>
</clipPath>
</defs>
</svg>
